# xmcd
#
# Track frame offsets:
#	150
#	152935
#	267375
#
# Disc length: 4305 seconds
#
# Revision: 1
# Processed by: cddbd v1.4PL0 Copyright (c) Steve Scherf et al.
# Submitted via: audiograbber 1.80
#
DISCID=2310cf03
DTITLE=Deep - Dance Control 10
DYEAR=1900
DGENRE=
TTITLE0=Dance
TTITLE1=Hip Hop Swing
TTITLE2=Soft And Slow
EXTD=
EXTT0=
EXTT1=
EXTT2=
PLAYORDER=
